# xmcd
#
# Track frame offsets: 
#        150
#        17464
#        34127
#        52069
#        65928
#        85581
#        102665
#        124939
#        148813
#        169364
#        187322
#        204334
#        217688
#        235263
#        255674
#        271100
#        289105
#        304717
#        318602
#        338863
#
# Disc length: 4766 seconds
#
# Revision: 0
# Processed by: cddbd v1.5.2PL0 Copyright (c) Steve Scherf et al.
# Submitted via: ExactAudioCopy v0.95b3
#
DISCID=35129c14
DTITLE=Various Artist - Кураж байрам
DYEAR=2006
DGENRE=Pop
TTITLE0=01 - Барыбер яратам
TTITLE1=02 - Ашыкма
TTITLE2=03 - Боз
TTITLE3=04 - Кышкы юл
TTITLE4=05 - Ямаш
TTITLE5=06 - Яратсан Ярат син
TTITLE6=07 - Карангы тон
TTITLE7=08 - Яшел кузкэем
TTITLE8=09 - Кайта тор
TTITLE9=10 - Айфара перепевка
TTITLE10=11 - Чынлап яратам
TTITLE11=12 - Дуслар белэн
TTITLE12=13 - Шэп кыз
TTITLE13=14 - Эйдэ биибез
TTITLE14=15 - Узем барам
TTITLE15=16 - Гомерлек сабак
TTITLE16=17 - Мин сине котэм
TTITLE17=18 - Килмэ (дуэт)
TTITLE18=19 - Усал кыз
TTITLE19=20 - Килмэ
EXTD=
EXTT0=
EXTT1=
EXTT2=
EXTT3=
EXTT4=
EXTT5=
EXTT6=
EXTT7=
EXTT8=
EXTT9=
EXTT10=
EXTT11=
EXTT12=
EXTT13=
EXTT14=
EXTT15=
EXTT16=
EXTT17=
EXTT18=
EXTT19=
PLAYORDER=
